PathFileType	4	(X/Y/Z)	C:/Users/opensim2020/Desktop/walking_exp_matlab/subject01_walking07_straight_01.trc	
DataRate	CameraRate	NumFrames	NumMarkers	Units	OrigDataRate	OrigDataStartFrame	OrigNumFrames	
100.00	100.00	8	43	mm	100.00	796	282	
Frame#	Time	LFHD			RFHD			LBHD			RBHD			C7			T10			CLAV			STRN			RBAK			LSHO			LUPA			LELB			LFRM			LWRA			LWRB			LFIN			RSHO			RUPA			RELB			RFRM			RWRA			RWRB			RFIN			LASI			RASI			LPSI			RPSI			LTHI			LKNE			LTIB			LANK			LHEE			LTOE			RTHI			RKNE			RTIB			RANK			RHEE			RTOE			*39			*40			*41			*42			
		X1	Y1	Z1	X2	Y2	Z2	X3	Y3	Z3	X4	Y4	Z4	X5	Y5	Z5	X6	Y6	Z6	X7	Y7	Z7	X8	Y8	Z8	X9	Y9	Z9	X10	Y10	Z10	X11	Y11	Z11	X12	Y12	Z12	X13	Y13	Z13	X14	Y14	Z14	X15	Y15	Z15	X16	Y16	Z16	X17	Y17	Z17	X18	Y18	Z18	X19	Y19	Z19	X20	Y20	Z20	X21	Y21	Z21	X22	Y22	Z22	X23	Y23	Z23	X24	Y24	Z24	X25	Y25	Z25	X26	Y26	Z26	X27	Y27	Z27	X28	Y28	Z28	X29	Y29	Z29	X30	Y30	Z30	X31	Y31	Z31	X32	Y32	Z32	X33	Y33	Z33	X34	Y34	Z34	X35	Y35	Z35	X36	Y36	Z36	X37	Y37	Z37	X38	Y38	Z38	X39	Y39	Z39	X40	Y40	Z40	X41	Y41	Z41	X42	Y42	Z42	X43	Y43	Z43	

142	1.410	1404.42468	-348.13272	1673.71472	1514.64490	-319.11923	1682.68030	1429.61853	-454.93057	1612.92944	1546.73108	-426.78674	1621.06934	1458.22217	-470.68738	1431.28735	1462.41663	-510.29596	1139.96338	1461.30505	-326.15308	1364.51282	1456.60242	-284.69025	1208.31091	1531.60632	-527.83966	1238.57458	1300.01367	-380.20938	1394.91077	1207.27039	-384.84091	1213.19849	1196.13184	-373.06461	1061.30469	1177.11194	-296.82224	972.13165	1207.58057	-187.17635	891.79395	1175.80432	-231.98805	869.18640	1173.01367	-161.68881	822.58820	1611.87805	-392.16953	1392.84167	1705.61890	-471.22165	1198.12524	1709.18152	-481.56601	1074.71790	1742.40137	-468.25089	955.50244	1731.52051	-398.48288	831.38647	1766.71021	-445.16577	836.98450	1765.90356	-417.05936	755.10309	1358.58069	-344.94937	926.23041	1573.64636	-339.37979	938.21307	1417.53906	-529.68475	944.01764	1563.81726	-522.25464	946.58295	1321.67896	-400.86398	591.37048	1345.21741	-420.98416	458.12506	1348.90491	-488.30167	280.86414	1410.01880	-537.39648	71.30304	1465.44177	-582.94928	45.86379	1393.09583	-394.50806	32.52102	1644.88806	-285.34073	625.43933	1620.61023	-237.41922	472.40717	1626.79346	-314.31558	311.39133	1581.71887	-370.60364	113.37366	1527.79541	-419.66208	79.48009	1595.37659	-244.07358	53.68356	1494.53540	-339.11713	1714.08752	-3101.89844	1973.14954	1023.54547	-3140.56909	2012.53516	1022.07111			 
143	1.420	1404.61829	-338.17264	1673.35266	1514.87585	-309.16107	1682.16309	1429.79993	-445.01535	1612.69702	1546.90027	-416.98621	1620.75513	1458.11523	-460.98758	1430.80518	1462.41064	-500.80960	1139.54614	1461.26025	-316.58572	1363.98962	1456.34302	-275.13412	1207.76733	1531.17725	-518.24719	1237.96216	1300.02466	-370.49814	1394.64624	1207.13831	-374.07498	1213.12256	1195.50098	-361.06528	1061.23108	1176.48340	-283.11624	973.61749	1206.51367	-171.43227	895.55646	1175.21106	-216.11990	871.76611	1172.08679	-144.94011	826.79755	1611.83521	-382.69296	1392.24426	1705.07971	-462.62488	1197.72583	1708.50000	-473.61319	1074.34473	1741.61169	-460.98758	955.04968	1730.88843	-391.57507	830.66583	1765.94897	-438.64981	836.40045	1765.03442	-410.76077	754.24805	1357.96948	-336.05075	925.35248	1573.28833	-329.41843	937.69110	1417.97083	-520.52399	943.71100	1564.09619	-512.43848	946.21497	1321.77771	-395.56503	591.06372	1345.02173	-417.82977	458.01547	1348.91382	-486.67273	281.39246	1410.10815	-537.20758	72.28311	1465.48804	-582.75146	47.13501	1393.36938	-394.11142	32.12587	1644.80701	-275.37677	624.82361	1620.18896	-227.29378	472.14807	1627.41370	-294.94885	307.38239	1582.31873	-338.46164	105.34079	1528.71924	-385.90262	68.90495	1595.17395	-208.29857	53.56921	1494.78052	-329.08606	1713.62561	-3101.75806	1973.10413	1023.30267	-3140.59277	2012.58691	1022.05872			 
144	1.430	1404.85278	-328.17691	1672.87720	1515.12854	-299.20819	1681.56433	1429.95679	-435.13882	1612.47632	1547.07104	-407.18286	1620.37952	1458.14819	-451.36151	1430.38831	1462.53442	-491.17258	1139.00586	1461.22803	-306.99771	1363.40942	1456.13220	-265.60910	1207.18445	1530.86438	-508.60370	1237.34851	1300.05872	-360.78415	1394.33862	1207.01611	-363.48697	1212.93896	1195.04248	-349.11438	1061.22583	1176.00378	-269.50220	974.99316	1205.84326	-156.48848	898.98737	1174.46973	-200.16698	874.56879	1171.13574	-128.53514	830.97510	1611.89417	-373.13370	1391.56592	1704.65271	-453.98407	1197.27136	1707.93604	-465.60516	1073.94165	1740.90857	-453.51840	954.56055	1730.06458	-384.77982	829.77295	1765.02563	-431.85074	835.71924	1764.22095	-404.12598	753.42554	1357.50720	-327.48431	924.48834	1573.03735	-319.16293	937.00323	1418.57202	-511.24435	943.42584	1564.58301	-502.41833	945.88239	1321.79138	-390.23145	590.83490	1344.78137	-414.76599	457.96393	1348.89929	-485.04565	281.98746	1410.16162	-536.80975	73.19729	1465.49451	-582.61151	48.27280	1393.25134	-394.06421	32.06474	1645.06873	-265.64987	623.97375	1619.66162	-217.90654	471.43887	1628.00708	-276.20416	303.84125	1583.35034	-306.22421	98.56245	1530.03235	-352.62378	60.46039	1595.05164	-173.04283	54.02218	1495.05139	-319.09140	1713.07629	-3101.93555	1973.16516	1023.23132	-3140.62549	2012.49915	1021.99042			 
145	1.440	1405.21252	-318.12604	1672.35559	1515.51965	-289.20767	1680.85828	1430.15613	-425.43558	1612.30286	1547.36377	-397.34787	1619.93103	1458.18909	-441.59406	1429.78772	1462.92871	-481.52814	1138.47437	1461.33813	-297.32437	1362.73938	1456.04407	-255.92613	1206.52148	1530.71655	-498.94305	1236.61133	1300.13794	-351.04712	1393.92200	1206.96143	-352.98227	1212.69739	1194.71130	-337.24161	1061.13452	1175.56750	-256.07806	976.25983	1205.29346	-141.52788	902.57764	1174.42041	-185.21786	877.18903	1170.47351	-112.56641	835.01007	1611.96362	-363.54782	1390.80786	1704.31763	-445.30731	1196.73474	1707.40198	-457.50116	1073.34436	1740.26440	-445.86905	953.95990	1729.35962	-377.66760	828.90167	1764.32263	-424.65128	834.96539	1763.27856	-397.10236	753.03967	1357.58130	-317.92172	923.89142	1572.83789	-308.67972	936.16754	1419.33215	-501.78238	943.03619	1565.33215	-492.30762	945.58923	1321.74841	-384.97119	590.79547	1344.52295	-411.61102	458.05786	1348.94507	-483.33624	282.85284	1410.02759	-536.44397	74.06463	1465.53320	-582.18756	49.78688	1393.18469	-394.00555	31.95498	1642.88708	-260.08423	620.32410	1619.09961	-208.90750	470.65918	1628.46655	-258.07764	300.71286	1584.66577	-274.22620	93.17793	1531.45520	-318.19464	52.29506	1595.24182	-138.71466	55.65966	1495.41370	-308.89908	1712.47290	-3101.88452	1973.10046	1023.48334	-3140.64819	2012.51147	1022.00116			 
146	1.450	1405.66394	-308.06638	1671.77246	1515.95056	-279.14615	1680.08826	1430.46570	-415.44446	1611.95227	1547.68567	-387.44293	1619.42383	1458.25574	-431.87845	1429.16125	1463.48108	-471.83554	1137.85144	1461.43848	-287.65594	1362.01123	1455.98499	-246.21852	1205.81152	1530.70276	-489.26355	1235.88782	1300.31726	-341.32370	1393.43518	1206.99426	-342.47891	1212.41052	1194.36438	-325.47849	1060.99170	1175.30847	-242.96500	977.44928	1205.03369	-127.15054	905.75336	1174.22314	-170.37862	879.61328	1169.91162	-96.91669	838.95197	1612.13452	-353.92514	1390.03601	1704.09497	-436.52097	1196.11853	1706.94934	-449.17746	1072.78491	1739.67664	-437.98438	953.22351	1728.75061	-370.30322	827.98358	1763.70227	-417.37115	834.24506	1762.56763	-390.08563	752.20575	1357.21558	-308.76382	923.29114	1572.65955	-297.98557	935.25598	1420.26648	-492.29691	942.67163	1565.98499	-481.80972	944.92621	1321.74158	-379.69699	590.83972	1344.26050	-408.33499	458.30707	1348.99231	-481.50888	283.78333	1410.30872	-535.93231	75.55523	1465.60999	-582.10968	51.57793	1393.18262	-393.94299	31.90069	1644.80261	-249.77965	620.24817	1618.55615	-200.12029	469.74106	1629.00732	-240.40594	297.94199	1585.94055	-243.27789	89.03826	1532.86401	-284.81439	45.67537	1595.84985	-105.40033	58.96990	1495.91467	-298.79794	1711.75012	-3101.84912	1973.13269	1023.41089	-3140.58984	2012.56494	1021.94916			 
147	1.460	1406.10022	-297.98914	1671.06348	1516.43958	-269.05212	1679.22083	1430.85107	-405.50720	1611.56470	1548.08679	-377.54584	1618.87158	1458.71252	-422.31732	1428.77710	1464.25793	-462.11096	1137.18274	1461.71265	-278.00241	1361.25195	1455.97021	-236.59999	1205.06958	1530.87280	-479.52240	1235.07532	1300.59583	-331.56445	1392.85535	1207.08154	-332.12479	1211.99573	1194.09021	-313.88309	1060.71521	1175.11316	-230.05840	978.44739	1204.75403	-112.88617	908.94794	1174.12292	-155.88057	881.87872	1169.50061	-81.68159	842.68500	1612.38281	-344.31262	1389.20789	1703.97278	-427.68762	1195.41296	1706.62671	-440.69980	1072.16357	1739.24890	-429.99173	952.54535	1728.22437	-362.69647	827.01868	1763.04810	-409.68463	833.43817	1761.92993	-382.80890	751.24585	1356.92236	-299.68066	922.72357	1572.38623	-287.19452	934.18518	1421.37488	-482.66730	942.34442	1566.88489	-471.21130	944.26331	1321.69739	-374.38806	591.11786	1343.96423	-404.62277	458.63055	1349.16528	-479.46451	284.82483	1410.38086	-535.49902	76.80949	1466.04504	-581.55682	53.56897	1393.09290	-393.97293	31.88650	1642.42700	-246.20833	615.58459	1617.90051	-191.47768	468.50113	1629.72351	-222.83598	295.84729	1587.13379	-213.42233	86.09982	1534.55139	-252.68393	40.78941	1596.68542	-73.54211	63.59724	1496.26331	-288.68631	1710.80029	-3101.87012	1973.12866	1023.56805	-3140.73486	2012.49768	1022.04553			 
148	1.470	1406.62549	-287.73114	1670.31982	1516.97705	-258.89368	1678.32397	1431.33691	-395.50220	1611.15955	1548.54028	-367.63403	1618.32104	1459.01978	-412.62555	1427.89844	1465.27991	-452.24847	1136.47327	1462.03760	-268.39838	1360.44836	1456.04431	-226.90402	1204.35010	1531.30371	-469.88495	1234.23462	1301.04565	-321.86456	1392.23584	1207.20789	-321.72043	1211.58838	1193.97095	-302.48245	1060.41516	1175.03296	-217.33995	979.29150	1204.66992	-99.14259	911.87061	1174.17334	-141.64928	884.00140	1169.29395	-66.89948	846.24286	1612.82495	-334.74496	1388.38733	1704.02332	-418.72849	1194.62646	1706.44519	-432.07721	1071.41956	1738.85999	-421.80942	951.70612	1727.75513	-354.91486	825.99872	1762.51343	-401.95618	832.44116	1761.42017	-375.25482	750.34467	1356.63098	-290.33627	922.30957	1572.12598	-276.27765	933.10394	1422.55823	-472.85944	941.91327	1567.85046	-460.44971	943.54163	1321.51221	-368.87320	591.44531	1343.68982	-400.44638	458.95972	1349.38818	-477.25098	286.36203	1410.72607	-535.02917	78.64739	1466.41870	-580.97943	55.80667	1393.02625	-394.08255	31.88172	1642.59229	-240.17351	612.73761	1617.27954	-182.68243	467.40701	1629.65930	-206.15591	293.74268	1588.66956	-184.69484	84.67522	1536.24622	-222.00543	37.01227	1597.24536	-43.55267	68.91593	1496.82007	-278.40302	1709.97241	-3101.95190	1973.06067	1023.79333	-3140.64526	2012.50037	1022.01080			 
149	1.480	1407.24353	-277.40988	1669.58252	1517.59583	-248.59660	1677.44751	1431.90588	-385.51331	1610.80396	1549.12292	-357.58231	1617.86536	1459.57593	-402.99207	1427.18909	1466.45496	-442.32855	1135.65222	1462.56628	-258.74503	1359.67871	1456.32861	-217.06691	1203.65515	1531.99182	-460.15564	1233.29895	1301.64392	-312.13867	1391.56104	1207.50964	-311.42050	1211.17017	1194.02014	-291.33685	1059.98975	1175.08057	-205.00473	980.05743	1204.64624	-85.73417	914.63354	1173.98303	-127.59309	885.94501	1169.17944	-52.40694	849.55408	1613.40515	-325.12192	1387.50232	1704.21399	-409.71640	1193.77173	1706.35388	-423.29037	1070.58997	1738.54358	-413.38077	950.76917	1727.36926	-346.85382	824.87756	1762.12512	-394.01917	831.47400	1760.98865	-367.86246	748.84924	1356.36536	-280.41956	922.17542	1571.78076	-265.23196	931.89886	1423.84766	-462.95938	941.40344	1568.89526	-449.36569	942.58063	1321.29199	-363.02527	591.80878	1343.37878	-395.88913	459.45349	1349.41736	-474.47113	287.42999	1411.05908	-534.08624	80.16296	1466.88147	-580.30963	58.12542	1393.00378	-394.15051	31.90933	1643.22156	-234.20630	609.82117	1616.59412	-173.74353	466.15817	1630.02344	-189.49091	292.53403	1589.57117	-157.90100	84.01943	1537.34509	-192.86365	34.36136	1597.50586	-15.71319	74.47812	1497.45447	-268.04031	1709.13989	-3101.98828	1973.20959	1023.33380	-3140.54761	2012.54517	1022.05646			 
